<?xml version="1.0" standalone="no"?>
<!DOCTYPE svg PUBLIC "-//W3C//DTD SVG 20010904//EN"
 "http://www.w3.org/TR/2001/REC-SVG-20010904/DTD/svg10.dtd">
<svg version="1.0" xmlns="http://www.w3.org/2000/svg"
 width="1560.000000pt" height="1560.000000pt" viewBox="0 0 1560.000000 1560.000000"
 preserveAspectRatio="xMidYMid meet">
<metadata>
Created by potrace 1.11, written by Peter Selinger 2001-2013
</metadata>
<g transform="translate(0.000000,1560.000000) scale(0.100000,-0.100000)"
fill="#000000" stroke="none">
<path d="M7697 15454 c-1 -1 -49 -5 -107 -8 -181 -11 -346 -25 -376 -30 -11
-2 -50 -7 -89 -10 -38 -4 -81 -9 -95 -11 -14 -2 -45 -7 -70 -10 -25 -3 -56 -8
-70 -10 -14 -2 -43 -7 -65 -10 -23 -3 -52 -8 -65 -10 -14 -3 -41 -7 -60 -10
-19 -3 -46 -7 -60 -10 -14 -3 -36 -7 -50 -10 -14 -3 -36 -7 -50 -10 -14 -3
-41 -8 -60 -11 -19 -3 -84 -17 -145 -31 -60 -13 -121 -27 -135 -29 -219 -43
-881 -243 -1055 -319 -16 -7 -41 -16 -55 -20 -40 -12 -319 -124 -398 -161 -41
-19 -75 -34 -77 -34 -7 0 -161 -72 -295 -138 -179 -88 -393 -204 -537 -293
-242 -148 -662 -463 -979 -734 -197 -169 -348 -309 -534 -496 -187 -188 -290
-298 -430 -462 -14 -16 -32 -36 -40 -46 -8 -9 -33 -39 -55 -66 -22 -28 -42
-52 -46 -55 -3 -3 -18 -23 -34 -45 -17 -22 -32 -42 -35 -45 -15 -14 -118 -151
-206 -275 -472 -662 -794 -1342 -1039 -2195 -19 -69 -42 -147 -50 -175 -9 -27
-17 -59 -19 -70 -2 -11 -16 -65 -30 -120 -21 -86 -58 -245 -72 -309 -2 -11
-12 -63 -23 -115 -11 -53 -22 -109 -25 -126 -3 -16 -8 -41 -11 -55 -2 -13 -7
-42 -10 -65 -3 -22 -8 -47 -10 -55 -3 -8 -12 -62 -20 -120 -9 -58 -17 -116
-20 -130 -2 -14 -6 -50 -10 -80 -3 -30 -8 -66 -10 -80 -3 -14 -7 -50 -10 -80
-3 -30 -8 -73 -10 -95 -31 -289 -39 -466 -40 -885 0 -351 4 -469 20 -670 13
-153 18 -197 35 -335 11 -82 22 -170 25 -195 16 -129 66 -395 121 -635 14 -60
27 -117 29 -126 17 -79 123 -445 170 -584 165 -489 365 -929 632 -1396 100
-174 294 -469 416 -633 102 -138 310 -395 376 -467 9 -9 57 -60 106 -114 256
-279 534 -529 835 -755 82 -61 357 -250 365 -250 2 0 39 -22 82 -48 330 -204
762 -390 1264 -546 130 -40 350 -101 397 -111 9 -1 46 -11 82 -20 86 -22 75
-20 235 -54 162 -34 156 -33 340 -65 143 -25 324 -53 405 -62 25 -3 59 -7 75
-9 61 -7 121 -15 170 -20 28 -3 66 -7 85 -10 19 -2 73 -6 120 -10 47 -3 105
-8 130 -10 43 -4 187 -12 355 -21 97 -5 733 -5 865 0 118 5 310 15 370 21 25
3 77 7 115 10 39 3 95 7 125 9 30 3 75 7 100 10 25 3 90 10 145 16 55 6 111
13 125 15 14 2 50 7 80 10 30 4 98 13 150 21 52 8 104 16 115 18 11 2 40 6 65
10 25 4 59 10 75 12 107 17 435 81 565 110 85 20 166 38 180 40 33 7 316 80
405 105 39 11 77 22 85 24 102 23 606 186 815 264 605 226 1253 531 1727 812
31 19 83 49 115 68 55 32 156 103 178 126 114 116 175 264 176 427 2 279 -175
511 -449 587 -54 15 -95 19 -174 16 -139 -4 -200 -26 -386 -139 -229 -139
-647 -358 -902 -474 -134 -61 -180 -80 -335 -145 -176 -72 -531 -207 -548
-207 -5 0 -23 -6 -40 -14 -32 -14 -335 -112 -372 -121 -11 -2 -67 -18 -125
-35 -169 -50 -534 -141 -652 -164 -13 -2 -70 -14 -128 -26 -109 -23 -112 -23
-170 -34 -19 -3 -46 -8 -60 -11 -13 -3 -42 -7 -65 -10 -22 -3 -47 -8 -55 -10
-8 -2 -35 -7 -60 -10 -25 -3 -70 -10 -100 -15 -30 -5 -77 -12 -105 -16 -27 -3
-58 -8 -68 -10 -10 -2 -64 -8 -120 -14 -56 -6 -113 -13 -127 -15 -42 -6 -201
-21 -320 -30 -41 -3 -100 -8 -130 -10 -301 -24 -1059 -24 -1295 0 -34 3 -79 7
-255 20 -14 1 -47 5 -75 8 -27 4 -71 9 -97 12 -118 13 -145 16 -183 22 -22 3
-48 7 -59 9 -10 2 -44 6 -75 10 -31 3 -59 8 -62 10 -3 1 -28 6 -55 9 -39 6
-404 76 -464 90 -8 2 -69 17 -135 34 -66 18 -131 34 -145 37 -83 17 -532 162
-572 184 -10 6 -22 10 -28 10 -20 0 -337 140 -435 193 -153 82 -190 103 -330
195 -270 178 -494 363 -759 628 -161 162 -243 257 -479 554 -54 68 -277 396
-277 407 0 3 -10 19 -22 36 -13 18 -28 41 -34 52 -7 11 -49 85 -94 165 -188
331 -352 703 -481 1089 -79 238 -171 577 -195 715 -2 17 -7 39 -10 49 -3 10
-7 30 -9 45 -2 15 -8 48 -14 73 -13 56 -59 362 -66 439 -3 30 -7 64 -9 75 -2
11 -7 63 -11 115 -4 52 -9 102 -10 111 -6 33 -17 379 -17 539 0 249 17 582 37
735 2 17 7 62 10 100 4 39 8 77 10 85 2 8 7 42 11 75 3 33 7 67 9 75 3 16 13
83 21 135 5 36 22 130 29 165 3 14 8 39 10 55 35 198 140 630 205 840 105 337
201 605 288 800 39 90 159 333 190 389 17 29 197 333 217 365 60 96 322 462
344 481 3 3 33 38 66 79 188 232 483 542 725 760 58 52 107 97 110 101 13 14
315 263 395 325 231 179 257 198 420 308 184 124 493 291 765 412 58 26 119
53 135 60 17 8 89 37 160 65 72 28 139 55 150 59 28 12 118 45 130 47 6 1 48
16 95 32 119 42 414 132 480 147 8 2 40 11 72 19 31 8 67 18 80 20 12 3 50 12
83 21 33 8 71 17 85 20 14 2 81 16 150 30 137 28 173 35 210 40 14 2 52 8 85
14 71 12 101 16 220 31 138 18 142 18 370 37 197 16 830 8 995 -12 19 -2 62
-7 95 -10 117 -13 229 -28 365 -50 58 -9 192 -35 235 -45 204 -47 278 -66 395
-100 608 -176 1153 -429 1735 -809 39 -25 72 -48 75 -51 3 -3 32 -23 65 -45
33 -22 62 -42 65 -45 3 -3 41 -32 85 -64 370 -274 775 -640 1085 -983 58 -64
110 -121 115 -127 77 -83 294 -351 399 -491 37 -49 73 -97 80 -106 7 -9 42
-58 77 -110 35 -52 66 -96 69 -99 12 -11 230 -358 230 -365 0 -2 14 -28 31
-57 207 -350 448 -959 515 -1303 2 -11 8 -42 14 -70 6 -27 13 -61 15 -75 5
-21 22 -131 40 -255 14 -95 20 -236 20 -440 0 -203 -10 -418 -19 -434 -2 -3
-7 -33 -11 -66 -5 -48 -31 -182 -60 -317 -15 -68 -80 -289 -96 -323 -5 -11
-21 -54 -35 -95 -33 -92 -127 -299 -182 -400 -23 -41 -51 -93 -63 -115 -51
-93 -242 -369 -315 -455 -188 -221 -346 -381 -499 -506 -236 -193 -579 -327
-920 -361 -201 -20 -544 3 -690 47 -16 5 -41 11 -55 14 -79 14 -305 96 -452
164 -135 63 -397 217 -398 233 0 3 19 12 43 19 143 46 378 164 552 278 182
119 415 334 543 500 340 443 480 971 388 1467 -11 55 -14 70 -27 115 -7 25
-13 50 -15 55 -8 33 -60 157 -95 228 -132 262 -393 527 -643 651 -102 50 -236
96 -341 117 -106 21 -478 17 -515 -6 -3 -2 -21 -6 -40 -9 -133 -21 -386 -118
-553 -213 -32 -18 -60 -33 -60 -33 -1 0 -3 46 -4 103 -2 124 -14 292 -28 397
-3 19 -7 55 -10 80 -5 39 -24 154 -41 245 -3 17 -14 71 -25 120 -12 50 -23 99
-25 110 -9 44 -14 64 -44 180 -102 393 -219 724 -350 985 -69 137 -78 155
-145 270 -45 76 -187 292 -221 335 -14 17 -28 35 -32 40 -115 155 -228 271
-315 323 -101 61 -188 85 -307 85 -141 1 -199 -12 -309 -67 -235 -119 -464
-440 -608 -851 -28 -81 -24 -68 -62 -207 -16 -59 -32 -126 -35 -149 -3 -23
-12 -74 -20 -113 -8 -39 -17 -91 -20 -116 -3 -25 -8 -54 -10 -66 -2 -11 -7
-45 -10 -75 -3 -30 -8 -65 -10 -79 -12 -68 -23 -160 -41 -335 -4 -33 -8 -76
-10 -95 -3 -19 -7 -75 -10 -125 -4 -49 -8 -103 -11 -120 -22 -164 -22 -1053 0
-1275 2 -19 7 -84 10 -145 4 -60 9 -123 11 -140 2 -16 6 -58 10 -93 3 -34 12
-120 21 -190 8 -70 17 -143 19 -162 2 -19 6 -48 9 -65 2 -16 7 -48 10 -70 9
-61 45 -287 51 -315 3 -14 8 -38 11 -55 2 -16 7 -41 9 -55 6 -31 13 -67 20
-100 3 -14 7 -36 10 -50 3 -14 7 -36 10 -50 3 -14 8 -36 11 -50 3 -14 7 -34 9
-45 3 -11 16 -70 30 -130 14 -61 28 -121 31 -135 3 -14 17 -68 31 -120 13 -52
29 -111 33 -130 5 -19 18 -71 29 -115 12 -44 26 -98 31 -120 4 -22 18 -78 30
-125 12 -47 23 -89 24 -95 1 -5 5 -19 9 -30 3 -11 8 -31 11 -45 23 -121 81
-311 144 -466 l21 -51 -52 -50 c-96 -91 -234 -181 -337 -219 -69 -25 -156 -41
-178 -33 -17 7 -66 93 -105 189 -37 88 -145 471 -163 580 -3 14 -16 77 -30
140 -14 63 -28 125 -30 138 -18 95 -81 383 -110 502 -20 80 -37 152 -39 160
-2 8 -10 42 -19 75 -9 33 -19 69 -21 80 -16 72 -103 330 -155 460 -210 528
-563 896 -1010 1053 -120 42 -198 60 -342 81 -63 10 -391 7 -438 -2 -14 -3
-42 -8 -62 -11 -179 -27 -415 -104 -597 -196 -87 -43 -253 -139 -261 -150 -3
-4 -16 -13 -30 -20 -97 -50 -425 -346 -526 -475 -21 -27 -46 -58 -56 -68 -28
-32 -154 -219 -192 -287 -104 -183 -231 -491 -262 -635 -1 -5 -9 -37 -17 -70
-26 -100 -48 -221 -62 -340 -3 -27 -8 -66 -11 -85 -9 -60 -12 -381 -4 -470 15
-166 25 -233 54 -365 23 -109 80 -288 118 -375 38 -85 110 -225 124 -241 8 -8
14 -19 14 -23 0 -4 21 -37 46 -74 265 -381 639 -628 1089 -721 95 -19 134 -25
245 -36 58 -6 286 -6 325 -1 17 3 55 8 85 11 56 7 71 9 125 19 17 3 33 6 37 7
4 0 22 5 40 10 18 6 44 12 58 15 62 13 236 80 345 133 240 118 418 246 632
454 l70 69 38 -69 c98 -179 266 -373 409 -472 259 -179 539 -235 917 -185 280
37 637 190 888 378 19 14 38 26 43 26 4 0 25 -30 47 -68 167 -281 497 -381
791 -240 167 80 298 253 328 433 11 71 6 207 -13 354 -2 19 -7 69 -10 110 -3
42 -8 97 -10 124 -3 43 -2 46 15 37 10 -5 24 -16 32 -23 44 -42 416 -296 573
-391 107 -65 359 -194 470 -240 50 -21 104 -44 120 -52 34 -16 348 -120 385
-128 14 -3 52 -12 85 -21 129 -33 285 -61 435 -79 87 -11 256 -20 375 -19 127
0 335 10 365 18 8 2 40 7 70 10 176 21 543 111 665 165 11 5 65 28 120 51 366
155 644 350 984 689 172 172 274 286 421 475 92 119 310 435 310 450 0 4 8 19
19 33 56 81 231 429 303 602 102 247 223 635 253 811 3 19 8 41 10 49 5 17 9
38 29 160 18 104 23 138 31 215 4 33 8 71 10 84 19 115 26 658 12 826 -12 134
-25 259 -32 305 -18 126 -43 267 -80 449 -30 150 -122 459 -201 679 -80 221
-128 336 -245 578 -67 140 -112 226 -226 431 -202 364 -583 894 -932 1298 -94
108 -116 134 -236 265 -102 111 -445 451 -555 550 -58 52 -107 97 -110 100
-15 19 -293 246 -421 345 -46 35 -89 68 -94 73 -6 5 -55 41 -110 80 -55 40
-105 76 -111 81 -29 24 -344 227 -456 295 -552 331 -1131 588 -1698 755 -58
17 -118 35 -135 41 -98 30 -439 109 -545 126 -19 3 -43 7 -52 10 -19 6 -33 8
-103 19 -27 5 -52 9 -55 10 -8 2 -102 16 -135 20 -16 2 -64 9 -105 14 -41 6
-99 13 -127 16 -29 3 -74 7 -100 10 -215 22 -328 27 -681 29 -188 1 -343 1
-345 0z m743 -5294 c38 -132 50 -176 66 -250 3 -14 11 -50 19 -80 18 -72 43
-193 50 -250 3 -25 8 -56 10 -70 3 -14 7 -41 9 -60 38 -320 36 -633 -4 -1035
-19 -184 -23 -218 -35 -312 -2 -21 -7 -58 -10 -83 -9 -86 -16 -145 -22 -185
-6 -47 -8 -68 -18 -192 -4 -51 -11 -93 -15 -93 -4 0 -7 6 -8 13 -1 6 -17 100
-36 207 -19 107 -37 220 -41 250 -3 30 -8 62 -10 70 -2 8 -6 40 -10 70 -3 30
-8 71 -10 90 -2 19 -6 55 -9 80 -3 25 -7 68 -10 95 -5 46 -10 99 -21 245 -13
168 -19 371 -19 670 0 375 7 522 39 820 2 19 7 67 10 105 8 81 16 99 26 65 4
-14 26 -90 49 -170z m2414 -2071 c54 -59 77 -116 80 -202 6 -121 -44 -271
-136 -406 -86 -126 -290 -287 -469 -369 -87 -41 -217 -88 -266 -97 -15 -2 -39
-7 -53 -10 -98 -20 -119 -22 -257 -31 l-111 -7 8 39 c37 162 187 449 329 629
198 250 530 482 736 514 61 9 87 -2 139 -60z m-5713 -631 c186 -92 323 -398
469 -1048 12 -52 24 -108 29 -125 6 -25 -2 -46 -52 -135 -59 -106 -207 -332
-249 -382 -13 -15 -36 -44 -53 -65 -114 -143 -290 -295 -423 -365 -64 -34
-170 -72 -236 -84 -38 -7 -192 -7 -226 0 -14 3 -36 8 -50 11 -14 3 -36 7 -50
10 -95 18 -244 134 -305 238 -58 101 -105 245 -123 382 -13 96 -6 366 11 465
19 104 73 299 88 315 5 5 9 15 9 21 0 26 65 153 125 244 169 255 418 445 689
525 66 19 101 23 186 22 92 -2 112 -5 161 -29z"/>
</g>
</svg>
