<?xml version="1.0" standalone="no"?>
<!DOCTYPE svg PUBLIC "-//W3C//DTD SVG 20010904//EN"
 "http://www.w3.org/TR/2001/REC-SVG-20010904/DTD/svg10.dtd">
<svg version="1.0" xmlns="http://www.w3.org/2000/svg"
 width="512.000000pt" height="512.000000pt" viewBox="0 0 512.000000 512.000000"
 preserveAspectRatio="xMidYMid meet">
<metadata>
Created by potrace 1.11, written by Peter Selinger 2001-2013
</metadata>
<g transform="translate(0.000000,512.000000) scale(0.100000,-0.100000)"
fill="#000000" stroke="none">
<path d="M2414 5079 c-342 -18 -656 -102 -974 -260 -759 -377 -1273 -1099
-1386 -1949 -22 -166 -22 -464 0 -630 38 -288 113 -536 240 -795 139 -282 289
-488 514 -706 206 -200 399 -335 656 -460 311 -151 606 -228 951 -248 610 -35
1191 141 1682 511 121 91 330 292 427 412 241 297 429 682 510 1046 80 360 80
750 0 1110 -81 364 -269 749 -510 1046 -97 120 -306 321 -427 412 -493 371
-1063 544 -1683 511z m-479 -1131 c4 -35 106 -679 226 -1432 120 -752 219
-1370 219 -1372 0 -2 -103 -4 -230 -4 l-229 0 -6 33 c-14 82 -54 359 -60 420
l-7 67 -277 0 -278 0 -31 -212 c-18 -117 -35 -234 -38 -261 l-7 -47 -208 0
c-161 0 -209 3 -209 13 0 6 102 652 227 1435 l228 1422 336 0 337 0 7 -62z
m1315 -560 l1 -623 28 60 c16 33 58 124 94 202 36 78 154 331 263 563 l199
420 233 0 234 0 -45 -82 c-60 -111 -587 -1187 -587 -1199 0 -5 140 -363 310
-795 171 -431 310 -787 310 -789 0 -3 -105 -5 -233 -5 l-234 0 -175 458 c-96
251 -192 505 -214 564 -21 60 -42 108 -45 108 -3 0 -36 -56 -72 -125 l-67
-124 0 -441 0 -440 -230 0 -230 0 0 1435 0 1435 230 0 230 0 0 -622z"/>
<path d="M1461 2782 c-57 -383 -106 -705 -109 -714 -4 -17 11 -18 213 -18
l217 0 -6 28 c-7 35 -113 758 -161 1092 -20 140 -39 267 -43 282 -5 18 -43
-212 -111 -670z"/>
</g>
</svg>
